<?xml version="1.0" standalone="no"?>
<!DOCTYPE svg PUBLIC "-//W3C//DTD SVG 20010904//EN"
 "http://www.w3.org/TR/2001/REC-SVG-20010904/DTD/svg10.dtd">
<svg version="1.0" xmlns="http://www.w3.org/2000/svg"
 width="295.000000pt" height="46.000000pt" viewBox="0 0 295.000000 46.000000"
 preserveAspectRatio="xMidYMid meet">

<g transform="translate(0.000000,46.000000) scale(0.100000,-0.100000)"
fill="#000000" stroke="none">
<path d="M0 230 l0 -230 1475 0 1475 0 0 230 0 230 -1475 0 -1475 0 0 -230z
m328 127 c22 -2 23 -6 20 -57 -3 -42 -8 -56 -21 -58 -13 -3 -17 4 -17 31 0 36
-21 64 -40 52 -15 -9 -13 -198 2 -213 7 -7 20 -12 31 -12 12 0 17 -6 15 -17
-3 -15 -16 -19 -71 -21 -52 -2 -67 0 -67 11 0 8 9 18 21 23 18 9 20 18 21 112
1 108 -8 136 -36 113 -8 -7 -16 -27 -18 -44 -2 -20 -8 -32 -18 -32 -19 0 -27
90 -9 111 12 14 47 15 187 1z m202 -29 c37 -140 62 -214 75 -224 28 -21 7 -45
-36 -42 -39 2 -49 14 -28 35 6 6 8 20 4 32 -5 16 -15 21 -39 21 -43 0 -65 -24
-48 -51 20 -32 14 -39 -38 -39 -42 0 -50 3 -50 19 0 10 9 21 19 24 14 3 25 25
41 78 12 41 28 91 36 112 8 20 14 46 14 57 0 13 7 20 20 20 14 0 22 -11 30
-42z m221 31 c15 -7 24 -7 34 1 17 14 38 4 28 -13 -4 -7 -8 -30 -8 -51 0 -22
-5 -41 -12 -43 -8 -3 -13 5 -13 21 0 18 -9 30 -30 41 -38 20 -68 11 -76 -21
-9 -35 10 -51 66 -59 62 -9 96 -41 85 -82 -5 -15 -7 -36 -6 -45 4 -31 -40 -48
-115 -45 l-69 3 1 59 c0 69 19 82 38 25 13 -41 47 -57 89 -41 21 8 27 17 27
39 0 37 -17 52 -57 52 -95 0 -130 70 -72 143 22 29 56 35 90 16z m215 -1 c4
-6 -4 -19 -19 -30 -26 -19 -37 -61 -19 -72 4 -2 22 9 40 25 24 22 32 36 30 57
-3 26 -1 27 46 27 57 -1 73 -20 29 -36 -15 -6 -41 -27 -58 -46 l-29 -36 35
-66 c21 -38 47 -71 62 -79 43 -21 24 -42 -38 -42 -58 0 -79 15 -51 36 16 11
15 16 -9 64 -26 51 -27 52 -46 34 -28 -25 -23 -99 6 -99 11 0 20 -7 20 -15 0
-11 -14 -16 -57 -18 -59 -3 -75 8 -43 32 11 8 15 36 17 115 1 90 -1 106 -17
117 -10 7 -15 20 -12 29 8 18 102 22 113 3z m295 1 c15 -7 24 -7 34 1 16 13
39 4 29 -12 -4 -6 -7 -29 -8 -51 -1 -44 -26 -66 -26 -23 0 18 -9 30 -31 41
-28 15 -33 15 -55 0 -26 -17 -31 -46 -11 -63 6 -5 33 -13 59 -17 70 -11 105
-52 78 -95 -6 -9 -5 -17 2 -21 7 -5 2 -16 -15 -33 -24 -24 -32 -26 -97 -24
-49 2 -75 7 -83 17 -9 12 -9 13 1 7 9 -5 12 7 12 49 0 63 18 72 32 17 10 -39
40 -56 84 -47 34 6 38 12 34 50 -3 32 -20 45 -57 45 -95 0 -130 70 -72 143 22
29 56 35 90 16z m193 -6 c3 -10 10 -49 16 -88 20 -123 25 -124 41 -9 6 43 18
87 27 97 31 36 93 9 62 -28 -7 -8 -12 -51 -12 -110 -1 -81 2 -98 17 -109 11
-8 16 -20 12 -30 -6 -14 -22 -15 -129 -12 -68 2 -125 5 -128 5 -3 1 4 8 14 16
16 12 19 29 19 121 1 92 -1 108 -17 120 -30 21 -13 44 33 44 29 0 41 -5 45
-17z m346 -20 c5 -21 22 -78 35 -128 17 -61 33 -95 48 -107 l22 -17 3 55 c3
61 20 69 34 16 10 -39 40 -56 84 -47 34 6 38 12 34 50 -3 32 -20 45 -57 45
-69 0 -115 46 -98 98 19 61 69 87 116 61 15 -7 24 -7 34 1 16 13 39 4 29 -12
-4 -6 -7 -29 -8 -51 -1 -44 -26 -66 -26 -23 0 18 -9 30 -31 41 -28 15 -33 15
-55 0 -26 -17 -31 -46 -11 -63 6 -5 33 -13 59 -17 70 -11 105 -52 78 -95 -6
-9 -5 -17 2 -21 7 -5 1 -16 -15 -33 -24 -24 -33 -26 -94 -24 -38 1 -74 6 -81
12 -9 7 -16 6 -21 -3 -9 -15 -81 -11 -81 4 0 6 5 16 11 22 6 6 8 20 4 32 -5
16 -15 21 -39 21 -43 0 -65 -24 -48 -51 20 -32 14 -39 -38 -39 -42 0 -50 3
-50 19 0 10 9 21 19 24 14 3 25 25 41 78 12 41 28 94 37 119 8 25 17 51 19 58
7 26 33 11 44 -25z m518 24 c21 -2 23 -6 21 -52 -2 -51 -14 -79 -30 -69 -5 3
-9 20 -9 38 0 35 -21 62 -40 51 -6 -4 -10 -49 -10 -111 l0 -105 30 -6 c21 -4
30 -11 28 -22 -4 -22 -138 -30 -138 -8 0 8 9 18 21 23 19 9 21 18 21 113 0
103 -10 137 -33 114 -6 -6 -14 -26 -18 -45 -11 -52 -35 -43 -39 15 -5 81 1 83
196 64z m140 1 c9 -9 17 -8 37 2 18 10 35 11 63 4 37 -9 37 -9 40 -68 2 -44 0
-57 -10 -54 -7 3 -14 18 -16 36 -4 40 -22 54 -69 50 -37 -3 -38 -4 -38 -43 0
-48 23 -55 43 -12 23 47 32 31 31 -50 -2 -88 -4 -94 -24 -87 -11 5 -12 11 -4
26 13 23 10 27 -22 30 -22 3 -24 0 -24 -42 l0 -45 50 0 50 0 5 40 c3 27 10 40
20 40 12 0 15 -13 15 -60 l0 -60 -122 -3 c-109 -3 -123 -2 -123 13 0 9 13 21
30 27 l31 10 -3 107 -3 106 -27 3 c-26 3 -36 20 -21 35 11 12 78 8 91 -5z
m370 -4 c33 -23 29 -48 -5 -39 -16 3 -45 9 -65 12 -33 4 -39 2 -47 -20 -5 -14
-7 -35 -4 -46 5 -19 12 -22 52 -19 39 3 48 7 59 30 8 17 18 25 27 21 19 -7 19
-17 -2 -56 -9 -18 -16 -36 -15 -40 4 -15 -30 -20 -52 -7 -41 21 -61 10 -64
-38 -3 -33 1 -44 15 -49 47 -17 36 -43 -18 -43 -27 0 -38 4 -33 11 4 8 0 8
-15 0 -32 -18 -42 16 -12 38 21 16 23 26 23 111 1 85 -1 95 -21 108 -11 8 -21
21 -21 28 0 21 168 20 198 -2z m11 -210 c1 -10 15 -29 30 -41 31 -26 19 -46
-25 -41 -21 2 -29 8 -29 23 0 11 -4 30 -8 42 -5 13 -5 28 -2 33 10 16 29 6 34
-16z"/>
<path d="M482 238 c-11 -36 -12 -68 -3 -68 3 0 14 7 24 14 17 13 22 42 11 70
-10 25 -22 19 -32 -16z"/>
<path d="M1430 173 c0 -38 4 -63 11 -63 5 0 7 -4 4 -10 -3 -5 -1 -10 6 -10 8
0 9 16 4 58 -10 85 -24 99 -25 25z"/>
<path d="M1530 181 c0 -10 -3 -33 -6 -50 -5 -24 -3 -31 10 -31 13 0 16 11 16
50 0 28 -4 50 -10 50 -5 0 -10 -8 -10 -19z"/>
<path d="M1755 251 c-10 -31 -14 -81 -7 -81 4 0 17 8 30 18 20 16 21 21 11 50
-12 36 -25 41 -34 13z"/>
</g>
</svg>
